<svg width="76" height="75" viewBox="0 0 76 75" fill="none" xmlns="http://www.w3.org/2000/svg">
<path fill-rule="evenodd" clip-rule="evenodd" d="M52.5938 41.0312C56.875 43.9375 59.875 47.875 59.875 53.125V62.5H72.375V53.125C72.375 46.3125 61.2187 42.2812 52.5938 41.0312Z" fill="white"/>
<path d="M28.625 37.5C35.5286 37.5 41.125 31.9036 41.125 25C41.125 18.0964 35.5286 12.5 28.625 12.5C21.7214 12.5 16.125 18.0964 16.125 25C16.125 31.9036 21.7214 37.5 28.625 37.5Z" fill="white"/>
<path fill-rule="evenodd" clip-rule="evenodd" d="M47.375 37.5C54.2812 37.5 59.875 31.9062 59.875 25C59.875 18.0937 54.2812 12.5 47.375 12.5C45.9062 12.5 44.5312 12.8125 43.2188 13.25C45.8125 16.4687 47.375 20.5625 47.375 25C47.375 29.4375 45.8125 33.5312 43.2188 36.75C44.5312 37.1875 45.9062 37.5 47.375 37.5Z" fill="white"/>
<path fill-rule="evenodd" clip-rule="evenodd" d="M28.625 40.625C20.2812 40.625 3.625 44.8125 3.625 53.125V62.5H53.625V53.125C53.625 44.8125 36.9688 40.625 28.625 40.625Z" fill="white"/>
</svg>
